<svg xmlns="http://www.w3.org/2000/svg" width="128.498" height="206.211" viewBox="0 0 128.498 206.211"><g transform="translate(-301.75 -304.769)"><path d="M161.034,64.252a28,28,0,0,1,5.111.036,43.536,43.536,0,0,1,10.1,2.13,45.428,45.428,0,0,1,8.378,3.745,32.358,32.358,0,0,1,6.207,4.6,19.865,19.865,0,0,1,4.534,6.309,21.843,21.843,0,0,1,1.716,8.9,38.613,38.613,0,0,1-2.517,12.955,8.644,8.644,0,0,0-.415,1.191c-.3.509-.459,1.062-.743,1.575a4.929,4.929,0,0,1-.9-1.282,13.876,13.876,0,0,1-1.218-3.566c-.371-1.674-.413-3.382-.72-5.064a29.836,29.836,0,0,0-2.182-7.435,11.873,11.873,0,0,0-2.075-3.185,3.037,3.037,0,0,0-1.368-.935,3.521,3.521,0,0,0-1.89.189c-1.131.36-2.229.788-3.367,1.131a53.923,53.923,0,0,1-11.211,2.07,42.65,42.65,0,0,1-6.667.206,33.093,33.093,0,0,1-10.961-2.743,2.9,2.9,0,0,0-1.8-.406c-.921.224-1.688.749-2.6,1-1.185.338-2.469.113-3.674.365a1.685,1.685,0,0,0-1.139.793,11.067,11.067,0,0,0-1.567,3.667,51.648,51.648,0,0,0-1.064,8.038,38.227,38.227,0,0,1-.61,4.716,7.769,7.769,0,0,1-.611,1.871c-.127.227-.3.523-.661.487-.3-.6-.493-1.228-.822-1.815a4.433,4.433,0,0,0-.262-.751,55.88,55.88,0,0,1-2.617-8.417,24.76,24.76,0,0,1-.579-8.547,9.805,9.805,0,0,1,1.275-3.732c.3-.506.7-.967,1.052-1.447a51.056,51.056,0,0,1,4.964-5.7,15.872,15.872,0,0,1,2.579-2.051,7.138,7.138,0,0,1,2.3-.928,5.79,5.79,0,0,0,1.352-.362,3.058,3.058,0,0,0,1.039-.945,16.463,16.463,0,0,1,5.447-4.45A22.024,22.024,0,0,1,161.034,64.252Z" transform="translate(181.137 240.716)" fill="#402416" stroke="#402416" stroke-width="0.2"/><path d="M162.99,219.742a3.52,3.52,0,0,1,1.89-.189,3.038,3.038,0,0,1,1.368.935,11.876,11.876,0,0,1,2.075,3.185,29.822,29.822,0,0,1,2.182,7.435c.307,1.682.348,3.39.72,5.064a13.869,13.869,0,0,0,1.218,3.566,4.928,4.928,0,0,0,.9,1.282c.284-.513.446-1.066.743-1.575a6.166,6.166,0,0,1,2.629-2.061,4.011,4.011,0,0,1,2.1-.2,2.425,2.425,0,0,1,1.222,1.122,8.174,8.174,0,0,1,1.09,3.652,6.382,6.382,0,0,1-.91,3.925A11.04,11.04,0,0,1,177.748,249c-.456.355-.927.7-1.4,1.035a1.954,1.954,0,0,1-1.417.443c-.425-.081-.612-.455-.964-.628-.218-.01-.305.2-.4.329-.833,1.626-1.552,3.294-2.412,4.911a15.69,15.69,0,0,1-2.5,3.163,49.648,49.648,0,0,1-6.3,5.291,45.812,45.812,0,0,1-7.65,4.483,24.392,24.392,0,0,1-4.74,1.612,9.636,9.636,0,0,0-1.09.242,24.9,24.9,0,0,1-4.109.449,20.037,20.037,0,0,1-2.8-.3,7.547,7.547,0,0,0,1.528.788,5.146,5.146,0,0,0,1.578.1c.514-.01,1.029.027,1.542-.01a13.978,13.978,0,0,0,2.135-.856,3.84,3.84,0,0,0-.026,1.718,13.065,13.065,0,0,0,.785,2.772,2.865,2.865,0,0,0,.7,1.12c-.732.958-1.544,1.872-2.3,2.817-.823,1.01-1.682,2-2.475,3.027l-.034-.034q-2.006-2.205-4.026-4.4a10.569,10.569,0,0,0-1.228-1.258,2.9,2.9,0,0,0,1.048-1.6,11.326,11.326,0,0,0,.721-3.739c-.033-.285-.018-.655-.325-.838-.482-.133-.986-.2-1.471-.329a34.478,34.478,0,0,1-9.37-3.7,41.912,41.912,0,0,1-9.33-7.485,15.87,15.87,0,0,1-2.475-3.246c-.779-1.346-1.474-2.726-2.259-4.069a1.3,1.3,0,0,0-.52-.607c-.324-.1-.626.1-.93.17a2.161,2.161,0,0,1-1.607-.183,5.377,5.377,0,0,1-1.955-1.867c-.636-.893-1.194-1.825-1.737-2.759a7.918,7.918,0,0,1-.945-4.454,6.144,6.144,0,0,1,.577-2.229,2.3,2.3,0,0,1,.678-.857,4.227,4.227,0,0,1,2.913-.59,6.3,6.3,0,0,1,3.077,1.687c.329.587.524,1.217.822,1.815.357.036.535-.259.661-.487a7.765,7.765,0,0,0,.611-1.871,38.224,38.224,0,0,0,.61-4.716,51.664,51.664,0,0,1,1.064-8.038,11.069,11.069,0,0,1,1.567-3.667,1.686,1.686,0,0,1,1.139-.793c1.2-.252,2.489-.027,3.674-.365.91-.251,1.677-.776,2.6-1a2.9,2.9,0,0,1,1.8.406,33.094,33.094,0,0,0,10.961,2.742,42.648,42.648,0,0,0,6.667-.206,53.926,53.926,0,0,0,11.211-2.07C160.76,220.53,161.859,220.1,162.99,219.742Z" transform="translate(201.196 105.383)" fill="#946237" stroke="#946237" stroke-width="0.2"/><path d="M749.215,557.236a2.544,2.544,0,0,1,1.083-.183.19.19,0,0,1,.149.3,2.993,2.993,0,0,1-.887.819c-.941.666-1.975,1.233-2.895,1.92-.148.127-.36.258-.324.458a6.469,6.469,0,0,0,2.091-.283c2.33-.619,4.557-1.475,6.868-2.137a16.724,16.724,0,0,1,4.932-.736c-.167.388-.624.6-.971.865-2.127,1.334-4.515,2.335-6.706,3.588a16.315,16.315,0,0,0-2.638,1.748c-.952.8-1.9,1.6-2.848,2.412a14.6,14.6,0,0,0-2.569,2.712,5.116,5.116,0,0,0-.854,2.669,20.256,20.256,0,0,0-5.08-1.211c-.5-.071-.758-.5-1.2-.662-.276-.01-.341.283-.424.451a10.125,10.125,0,0,1,.772-4.538,8.41,8.41,0,0,1,2.16-2.982,18.482,18.482,0,0,1,3.022-1.941A38.449,38.449,0,0,1,749.215,557.236Z" transform="translate(-330.137 -188.71)" fill="#946237" stroke="#946237" stroke-width="0.2"/><path d="M326.267,611.372a24.915,24.915,0,0,0,4.109-.449,1.8,1.8,0,0,0-.08.163l-.042.012a13.969,13.969,0,0,1-2.135.856c-.513.038-1.029,0-1.542.01a5.142,5.142,0,0,1-1.578-.1,7.54,7.54,0,0,1-1.528-.788A20.064,20.064,0,0,0,326.267,611.372Z" transform="translate(19.701 -235.654)" fill="#946237" stroke="#946237" stroke-width="0.2"/><path d="M445.492,654.371c.082-.169.147-.461.424-.451.445.162.7.59,1.2.662a20.24,20.24,0,0,1,5.08,1.211,2.522,2.522,0,0,1,1.248,1.02,1.72,1.72,0,0,1,0,1.054,34.926,34.926,0,0,1-2.418,7.5,43.529,43.529,0,0,1-3.45,6.386,28.122,28.122,0,0,1-4.461,5.341,14.035,14.035,0,0,1-5.025,3.055,9.7,9.7,0,0,1-1.764.385,47.2,47.2,0,0,1-18.377-1.462,33.068,33.068,0,0,1-8.64-3.989,29.3,29.3,0,0,1-4.492-3.633,4.267,4.267,0,0,0-.588-.515c.072,1.542.227,3.081.331,4.622.852,11.255,1.694,22.511,2.606,33.763.238,2.811.446,5.626.758,8.432a1.841,1.841,0,0,1-.709.333,27.4,27.4,0,0,1-4.946.758c-2.766.211-5.546.238-8.322.2a9.242,9.242,0,0,1-1.266-.043c-.178-.035-.185-.219-.2-.34a7.84,7.84,0,0,1,.126-1.316,2.62,2.62,0,0,0-.009-1.427c-.053-.879,0-1.76-.018-2.64q0-22.556.027-45.114c-.012-.651.026-1.3-.022-1.954-.063-1.618-.033-3.24-.066-4.86-.019-.652.016-1.306-.039-1.956.32-.9.842-1.744,1.2-2.638l.018-.052a58.889,58.889,0,0,1,8.526,1.3,8.036,8.036,0,0,1,1.008.261,14.206,14.206,0,0,1,.448,2.236.207.207,0,0,0,.085.162c1.93,1.669,3.855,3.348,5.935,4.889a42.247,42.247,0,0,0,8.194,4.87,30.679,30.679,0,0,0,13.089,2.708,11.663,11.663,0,0,0,6.717-2.586,17.6,17.6,0,0,0,4.4-5.328,29.7,29.7,0,0,0,3.183-9.826A7.782,7.782,0,0,1,445.492,654.371Z" transform="translate(-38.689 -273.114)" fill="#0399cd" stroke="#0399cd" stroke-width="0.2"/><path d="M350.759,655.859a2.493,2.493,0,0,1,.592.39c1,.727,1.963,1.492,2.987,2.195-.354.893-.876,1.735-1.2,2.638a15.749,15.749,0,0,0-.745,1.473q-.631,1.319-1.26,2.639a6.133,6.133,0,0,1-.4.773c-.486-.329-.838-.768-1.29-1.125-.507-.485-1.056-.939-1.566-1.421-.627-.576-1.261-1.145-1.892-1.716.792-1.027,1.651-2.017,2.475-3.027C349.215,657.731,350.027,656.817,350.759,655.859Z" transform="translate(0.652 -274.804)" fill="#f0d5b0" stroke="#f0d5b0" stroke-width="0.2"/><path d="M287.023,659.217c1.219-.729,2.431-1.464,3.648-2.2a10.567,10.567,0,0,1,1.228,1.258q2.018,2.2,4.026,4.4c-.706.574-1.421,1.139-2.107,1.73-.424.349-.834.709-1.284,1.035-.593.442-1.105.956-1.713,1.385-.941-1.691-1.8-3.415-2.719-5.114q-.6-1.165-1.225-2.318C286.816,659.309,286.961,659.263,287.023,659.217Z" transform="translate(50.678 -275.817)" fill="#f0d5b0" stroke="#f0d5b0" stroke-width="0.2"/><path d="M81.791,676.9a39.566,39.566,0,0,1,8.784-1.411q.631,1.151,1.225,2.318.013,3.917,0,7.835c-.03,1.582,0,3.166,0,4.749q.054,22.171.108,44.343a1.314,1.314,0,0,0-.187.576,5.6,5.6,0,0,1,.075,1.756c-.08.338-.509.471-.847.585a14.127,14.127,0,0,1-4.115.45c-1.658.013-3.307-.141-4.952-.292-1.249-.156-2.5-.314-3.73-.543a10.021,10.021,0,0,1-1.3-.292c.024-1.845.189-3.687.29-5.53q.243-3.568.5-7.137,1.3-17.766,2.738-35.525A113.38,113.38,0,0,0,69.367,699.3a46.055,46.055,0,0,0-4.1,5.191,5.659,5.659,0,0,0-.64,1.156,8.131,8.131,0,0,0-.39,3.792,11.2,11.2,0,0,0,1.473,4.318,22.653,22.653,0,0,0,3.988,4.825,26.513,26.513,0,0,0,4.477,3.452c.345.215.73.38,1.089.579.217.127.115.38.075.561a7.694,7.694,0,0,1-1.178,1.728,28.918,28.918,0,0,1-2.709,2.783c-.264.234-.517.478-.8.7-.131.121-.326.017-.461-.043a12.45,12.45,0,0,1-1.865-1.288c-2.021-1.617-3.915-3.34-5.8-5.068-1.06-1-2.161-1.966-3.1-3.045a19.2,19.2,0,0,1-3.749-6.584,10.783,10.783,0,0,1,.485-9.383,31.286,31.286,0,0,1,4.675-6.658c1.857-2.1,3.848-4.115,5.9-6.087q2.934-2.819,6.047-5.5c1.927-1.65,3.891-3.273,5.988-4.773.633-.449,1.285-.879,1.965-1.278a1.868,1.868,0,0,0,.878-1.463C81.648,677.1,81.6,676.917,81.791,676.9Z" transform="translate(246.98 -291.905)" fill="#0399cd" stroke="#0399cd" stroke-width="0.2"/><path d="M294.915,693.49c.921,1.7,1.778,3.423,2.719,5.114.607-.428,1.119-.942,1.713-1.384.449-.326.86-.686,1.284-1.035a1.736,1.736,0,0,1,.881,1.462,26.184,26.184,0,0,1-.364,4.109,49.976,49.976,0,0,0-.525,5.1c-1.906-1.842-3.8-3.693-5.709-5.532Q294.933,697.407,294.915,693.49Z" transform="translate(43.865 -307.589)" fill="#cccbca" stroke="#cccbca" stroke-width="0.2"/><path d="M360,697.888a15.736,15.736,0,0,1,.745-1.473c.055.651.02,1.3.039,1.956.032,1.62,0,3.241.066,4.86-.765.9-1.59,1.761-2.376,2.648-.914,1-1.819,2.013-2.735,3.015-.06-1.652-.264-3.3-.464-4.941a26.91,26.91,0,0,1-.293-4.082,1.617,1.617,0,0,1,.5-1.118c.511.483,1.059.936,1.566,1.421.452.358.8.8,1.29,1.125a6.129,6.129,0,0,0,.4-.773Q359.368,699.207,360,697.888Z" transform="translate(-6.953 -310.138)" fill="#cccbca" stroke="#cccbca" stroke-width="0.2"/><path d="M334.131,700.986l.034.034c.631.571,1.266,1.141,1.892,1.716a1.617,1.617,0,0,0-.5,1.118,26.924,26.924,0,0,0,.293,4.082c.2,1.644.4,3.289.464,4.941-.757.823-1.475,1.673-2.265,2.474-.7-.642-1.354-1.311-2.035-1.963a50.031,50.031,0,0,1,.525-5.1,26.178,26.178,0,0,0,.364-4.109,1.736,1.736,0,0,0-.881-1.462C332.71,702.126,333.425,701.56,334.131,700.986Z" transform="translate(12.472 -314.121)" fill="#0185b3" stroke="#0185b3" stroke-width="0.2"/><path d="M309.963,749.355c.049.651.01,1.3.023,1.954q-.006,22.557-.027,45.113c.013.88-.035,1.761.018,2.64q-1.791.431-3.6.815c-1.282-1.546-2.507-3.127-3.783-4.677-1.37,1.471-2.7,2.969-4.07,4.439-1.2-.165-2.379-.388-3.575-.551q-.06-22.171-.108-44.343c.005-1.583-.029-3.166,0-4.749,1.909,1.839,3.8,3.69,5.708,5.532.681.652,1.339,1.322,2.035,1.963.79-.8,1.507-1.651,2.265-2.474.916-1,1.821-2.012,2.735-3.016.785-.887,1.611-1.749,2.376-2.648m-7.822,12.488a1.793,1.793,0,1,0,.051,3.585,2.39,2.39,0,0,0,2.188-.813,1.571,1.571,0,0,0,.157-1.724,2.318,2.318,0,0,0-2.4-1.047m0,11.343a1.793,1.793,0,1,0,.05,3.585,2.388,2.388,0,0,0,2.189-.813,1.572,1.572,0,0,0,.157-1.724,2.318,2.318,0,0,0-2.4-1.047m0,11.02a1.793,1.793,0,1,0,.051,3.585,2.4,2.4,0,0,0,2.159-.775,1.575,1.575,0,0,0,.187-1.763A2.316,2.316,0,0,0,302.14,784.206Z" transform="translate(43.935 -356.262)" fill="#080808" stroke="#080808" stroke-width="0.2"/><path d="M332.6,846.11a2.317,2.317,0,0,1,2.4,1.047,1.571,1.571,0,0,1-.157,1.724,2.391,2.391,0,0,1-2.188.813,1.793,1.793,0,1,1-.051-3.585Z" transform="translate(13.474 -440.529)" fill="#cccbca" stroke="#cccbca" stroke-width="0.2"/><path d="M332.6,934.209a2.318,2.318,0,0,1,2.4,1.047,1.573,1.573,0,0,1-.157,1.724,2.388,2.388,0,0,1-2.189.813,1.793,1.793,0,1,1-.05-3.585Z" transform="translate(13.473 -517.285)" fill="#cccbca" stroke="#cccbca" stroke-width="0.2"/><path d="M332.6,1019.8a2.318,2.318,0,0,1,2.4,1.047,1.576,1.576,0,0,1-.187,1.763,2.4,2.4,0,0,1-2.159.775,1.793,1.793,0,1,1-.051-3.585Z" transform="translate(13.472 -591.851)" fill="#cccbca" stroke="#cccbca" stroke-width="0.2"/><path d="M165.413,1047.627a7.7,7.7,0,0,0,1.178-1.728c.761.383,1.536.745,2.3,1.125q-.259,3.568-.5,7.136a11.15,11.15,0,0,1-3.207-1.682,25.464,25.464,0,0,1-2.48-2.068A28.914,28.914,0,0,0,165.413,1047.627Z" transform="translate(155.733 -614.623)" fill="#946237" stroke="#946237" stroke-width="0.2"/><path d="M248.11,1105.42c1.276,1.551,2.5,3.131,3.783,4.677q1.807-.382,3.6-.815a2.619,2.619,0,0,1,.009,1.427,7.85,7.85,0,0,0-.126,1.317c.017.121.024.305.2.34a9.213,9.213,0,0,0,1.266.043c2.776.035,5.556.008,8.322-.2-.028.781-.175,1.557-.246,2.337q-2.285,19.642-4.574,39.286c-.457,3.974-.936,7.946-1.378,11.92-.163,0-.328,0-.489-.006-1.161-.087-2.323-.156-3.484-.238-.291-.018-.583-.037-.872-.062.67-6.665,1.112-13.349,1.219-20.038.049-3.414.013-6.831-.2-10.241a57.849,57.849,0,0,0-1.135-8.758,20.816,20.816,0,0,0-1.441-4.382,7.518,7.518,0,0,0-1.679-2.354,3.669,3.669,0,0,0-1.715-.906,6.416,6.416,0,0,0-1.911-.028,4.757,4.757,0,0,0-3.044,1.776,13.721,13.721,0,0,0-2.362,4.964,48.625,48.625,0,0,0-1.5,9.619c-.232,3.3-.273,6.612-.228,9.92.112,6.878.624,13.748,1.393,20.594q-.357.021-.712.048-1.951.122-3.9.251c-.14.006-.281.006-.421.01q-2.849-25.266-5.736-50.53c-.093-1-.269-2-.309-3.007,1.644.15,3.294.3,4.952.292a14.119,14.119,0,0,0,4.115-.45c.339-.115.768-.247.847-.585a5.6,5.6,0,0,0-.075-1.756,1.314,1.314,0,0,1,.187-.576c1.2.163,2.379.386,3.575.551C245.411,1108.389,246.741,1106.89,248.11,1105.42Z" transform="translate(98.42 -666.481)" fill="#0185b3" stroke="#0185b3" stroke-width="0.2"/><path d="M388.041,1572.08c1.161.082,2.323.151,3.484.238-.051,1.09-.166,2.177-.218,3.267q-1.815-.319-3.627-.643C387.787,1573.987,387.918,1573.034,388.041,1572.08Z" transform="translate(-34.627 -1073.056)" fill="#946237" stroke="#946237" stroke-width="0.2"/><path d="M272.466,1573.523q1.951-.129,3.9-.251c.11.969.188,1.941.273,2.912-1.219.218-2.441.427-3.661.637C272.807,1575.722,272.6,1574.625,272.466,1573.523Z" transform="translate(62.859 -1074.094)" fill="#946237" stroke="#946237" stroke-width="0.2"/><path d="M379.2,1593.74c.156.021.311.043.466.074q1.812.325,3.627.643c.311.053.621.106.928.177a4.305,4.305,0,0,0,1.091,3.288,4.161,4.161,0,0,0,1.645.962c1.076.39,2.219.629,3.31.984a1.605,1.605,0,0,1,1.023,2.327c-.125.171-.2.477-.5.452-1.963-.015-3.926-.075-5.881-.22a29.777,29.777,0,0,1-5.385-.886,2.384,2.384,0,0,1-.723-.24,3.477,3.477,0,0,1-.587-1.993,6.588,6.588,0,0,1,.347-1.365A27.208,27.208,0,0,0,379.2,1593.74Z" transform="translate(-26.613 -1091.927)" fill="#080808" stroke="#080808" stroke-width="0.2"/><path d="M234.661,1595.157a6.706,6.706,0,0,1,.737-.108,23.532,23.532,0,0,0,.785,4.611,2.705,2.705,0,0,1,.129,1.808,3.124,3.124,0,0,1-.545,1.171,38.619,38.619,0,0,1-10.288,1.28c-.695.009-1.389.032-2.083.027a1.8,1.8,0,0,1-.541-1.3,1.711,1.711,0,0,1,.579-1.132,2.172,2.172,0,0,1,.835-.4,32.362,32.362,0,0,0,3.9-1.208,3.579,3.579,0,0,0,1.98-2.481,6.128,6.128,0,0,0,.14-1.507q.353-.067.709-.125C232.22,1595.583,233.442,1595.375,234.661,1595.157Z" transform="translate(104.838 -1093.067)" fill="#080808" stroke="#080808" stroke-width="0.2"/></g></svg>